<svg width="20" height="20" viewBox="0 0 20 20" fill="none" xmlns="http://www.w3.org/2000/svg">
<path d="M16.3333 3C16.7754 3 17.1993 3.17559 17.5118 3.48816C17.8244 3.80072 18 4.22464 18 4.66667V16.3333C18 16.7754 17.8244 17.1993 17.5118 17.5118C17.1993 17.8244 16.7754 18 16.3333 18H4.66667C4.22464 18 3.80072 17.8244 3.48816 17.5118C3.17559 17.1993 3 16.7754 3 16.3333V4.66667C3 4.22464 3.17559 3.80072 3.48816 3.48816C3.80072 3.17559 4.22464 3 4.66667 3H16.3333ZM15.9167 15.9167V11.5C15.9167 10.7795 15.6304 10.0885 15.121 9.57903C14.6115 9.06955 13.9205 8.78333 13.2 8.78333C12.4917 8.78333 11.6667 9.21667 11.2667 9.86667V8.94167H8.94167V15.9167H11.2667V11.8083C11.2667 11.1667 11.7833 10.6417 12.425 10.6417C12.7344 10.6417 13.0312 10.7646 13.25 10.9834C13.4688 11.2022 13.5917 11.4989 13.5917 11.8083V15.9167H15.9167ZM6.23333 7.63333C6.60464 7.63333 6.96073 7.48583 7.22328 7.22328C7.48583 6.96073 7.63333 6.60464 7.63333 6.23333C7.63333 5.45833 7.00833 4.825 6.23333 4.825C5.85982 4.825 5.5016 4.97338 5.23749 5.23749C4.97338 5.5016 4.825 5.85982 4.825 6.23333C4.825 7.00833 5.45833 7.63333 6.23333 7.63333ZM7.39167 15.9167V8.94167H5.08333V15.9167H7.39167Z" fill="#020202"/>
</svg>
