<svg width="60" height="60" viewBox="0 0 60 60" fill="none" xmlns="http://www.w3.org/2000/svg">
<path d="M39.1358 39.1359C50.4884 27.7833 55.6012 14.4899 50.5556 9.44437C45.5101 4.39878 32.2167 9.5116 20.8642 20.8642C9.51169 32.2166 4.39877 45.5101 9.44436 50.5557C14.4899 55.6012 27.7834 50.4883 39.1358 39.1359Z" stroke="#020202" stroke-width="3" stroke-linecap="round" stroke-linejoin="round"/>
<path d="M20.8642 39.1359C9.51158 27.7833 4.39881 14.4899 9.44435 9.44437C14.4899 4.39878 27.7833 9.5116 39.1358 20.8642C50.4883 32.2166 55.6012 45.5101 50.5556 50.5557C45.5101 55.6012 32.2166 50.4883 20.8642 39.1359Z" stroke="#020202" stroke-width="3" stroke-linecap="round" stroke-linejoin="round"/>
<path d="M35 30C35 27.2386 32.7614 25 30 25C27.2386 25 25 27.2386 25 30C25 32.7614 27.2386 35 30 35C32.7614 35 35 32.7614 35 30Z" stroke="#020202" stroke-width="3" stroke-linecap="round" stroke-linejoin="round"/>
</svg>
